<svg width="700" height="171" viewBox="0 0 700 171" fill="none" xmlns="http://www.w3.org/2000/svg">
<path d="M59.3 0H0V170.6H59.3V0Z" fill="#F1F2F4"/>
<path d="M455.2 2.19998C449 0.799982 442.6 0 436 0H347.2L350.9 9.5L363.2 40.9L370.4 59.4L390.7 111.3L399.6 133.9L412.7 167.4L414 170.6H436.1C442.7 170.6 449.1 169.9 455.3 168.4C493.2 159.7 521.4 125.8 521.4 85.3C521.4 44.8 493.2 10.9 455.3 2.19998H455.2ZM436 111.3H399.6V59.4H436C450.3 59.4 462 71 462 85.4C462 99.8 450.4 111.4 436 111.4V111.3Z" fill="#F1F2F4"/>
<path d="M201 0L170.4 78.2L166.7 87.7L138 161.1L134.3 151.6L163 78.2L132.4 0H67.5L130.5 161.1L134.3 170.6H199.2L202.9 161.1L265.9 0H201Z" fill="#F1F2F4"/>
<path d="M339 0H274.1L270.4 9.5L207.3 170.6H272.2L302.8 92.4L306.5 82.9L335.3 9.5L339 19L310.2 92.4L340.8 170.6H405.7L342.7 9.5L339 0Z" fill="#F1F2F4"/>
<path d="M637 9.5L633.2 0H568.3L564.6 9.5L501.6 170.6H566.5L597.1 92.4L600.8 82.9L629.5 9.5L633.2 19L604.5 92.4L635.1 170.6H700L637 9.5Z" fill="#F1F2F4"/>
</svg>
