<svg width="700" height="277" viewBox="0 0 700 277" fill="none" xmlns="http://www.w3.org/2000/svg">
<path d="M273.7 56.6L255.3 111.4L236.9 56.6H196.1L232.8 165.8H277.9L314.5 56.6H273.7Z" fill="#D90526"/>
<path d="M700 111.2C700 79.9 675.8 54.5 645.5 53.3C644.8 53.3 644 53.3 643.3 53.3C612.7 53.3 587.7 78.1 586.6 109C586.6 109.3 586.6 109.7 586.6 110C586.6 110.2 586.6 110.3 586.6 110.5C586.6 110.7 586.6 111 586.6 111.2C586.6 143.2 612 169.2 643.4 169.2H648C666.4 169.2 682.9 161.6 694.1 149.5C686 142.9 672.9 132.3 666.3 127C657 136.4 644 135.2 644 135.2C636.9 135.2 630.6 130.6 627.2 123.8L700 116.5C699.9 114.7 700 113 700 111.2ZM626.9 98.7C630.4 91.8 636.6 87.2 643.8 87.2C650.9 87.2 657.2 91.8 660.7 98.7H626.9Z" fill="#D90526"/>
<path d="M533.3 53.2C524.1 53.2 515.5 56.1 508 61.2V56.6H468.1V210.1H508V161.2C515.4 166.3 524 169.2 533.3 169.2C560.8 169.2 583.1 143.2 583.1 111.2C583.1 79.2 560.8 53.2 533.3 53.2ZM525.7 131.5C517.8 131.5 511 126.4 508.1 119.1V103.2C511 95.9 517.8 90.8 525.7 90.8C536.3 90.8 544.9 99.9 544.9 111.1C544.8 122.4 536.3 131.5 525.7 131.5Z" fill="#D90526"/>
<path d="M463.9 8.09998H424V169.1H463.9V8.09998Z" fill="#D90526"/>
<path d="M234.8 171.9L180.6 211.1V0L145.7 105.3H34.9L0 0V211.1L90.3 276.4L56.1 170.7L90.3 146L124.5 170.7L90.3 276.4L180.6 211.1L269.5 275.2L234.8 171.9Z" fill="#D90526"/>
<path d="M361.7 53.2C329.7 53.2 303.7 79.2 303.7 111.2C303.7 143.2 329.7 169.2 361.7 169.2C393.7 169.2 419.7 143.2 419.7 111.2C419.7 79.2 393.7 53.2 361.7 53.2ZM362.2 131.5C351.6 131.5 343 122.4 343 111.1C343 99.8 351.6 90.7 362.2 90.7C372.8 90.7 381.4 99.8 381.4 111.1C381.4 122.4 372.8 131.5 362.2 131.5Z" fill="#D90526"/>
</svg>
